<svg width="40" height="40" viewBox="0 0 40 40" fill="none" xmlns="http://www.w3.org/2000/svg">
<path d="M2.59695 31.1914C3.46101 33.8556 6.08718 35.5557 8.88937 35.5557H8.99937C9.25645 36.8104 9.93881 37.9379 10.9311 38.7477C11.9235 39.5575 13.1649 39.9998 14.4457 40C15.3598 40 16.2138 39.77 16.9699 39.374C17.2854 39.201 17.548 38.9454 17.7294 38.6347C17.9109 38.3239 18.0044 37.9697 18 37.6098V2.0515C18.004 1.59327 17.8501 1.14763 17.5641 0.789547C17.2782 0.431466 16.8776 0.182796 16.4299 0.0853726C15.4264 -0.109529 14.3867 0.0317704 13.4717 0.487399C11.9836 1.19945 11.1115 2.78955 11.1115 4.44366V4.55367C9.99786 4.32637 8.84129 4.44607 7.7978 4.89663C6.75431 5.34719 5.87409 6.10692 5.27587 7.07336C4.67765 8.0398 4.3902 9.16646 4.4523 10.3014C4.5144 11.4363 4.92305 12.5248 5.62315 13.4203C4.05521 13.6659 2.62671 14.4639 1.59537 15.6702C0.56403 16.8764 -0.00222163 18.4116 -0.00121937 19.9987C-0.00121937 22.3548 1.22086 24.421 3.06498 25.6231C2.20493 27.1652 1.92291 29.1153 2.59695 31.1914ZM34.377 13.4203C35.0771 12.5248 35.4858 11.4363 35.5479 10.3014C35.61 9.16646 35.3225 8.0398 34.7243 7.07336C34.1261 6.10692 33.2459 5.34719 32.2024 4.89663C31.1589 4.44607 30.0023 4.32637 28.8887 4.55367V4.44366C28.8887 2.79155 28.0146 1.19945 26.5265 0.487399C25.6122 0.0316349 24.5731 -0.109681 23.5703 0.0853726C23.1227 0.18314 22.7224 0.431902 22.4365 0.789907C22.1506 1.14791 21.9966 1.59337 22.0002 2.0515V37.6078C22.0002 38.3379 22.3843 39.0319 23.0323 39.372C23.7883 39.77 24.6404 40 25.5545 40C26.8355 39.9997 28.0772 39.5571 29.0696 38.7469C30.062 37.9368 30.7441 36.8088 31.0008 35.5537H31.1128C33.913 35.5537 36.5412 33.8536 37.4052 31.1894C38.0793 29.1133 37.7973 27.1632 36.9372 25.6211C37.8766 25.0141 38.6492 24.1816 39.1844 23.1996C39.7196 22.2175 40.0005 21.1171 40.0014 19.9987C40.0024 18.4116 39.4362 16.8764 38.4048 15.6702C37.3735 14.4639 35.945 13.6659 34.377 13.4203Z" fill="white"/>
</svg>
